<svg 
 xmlns="http://www.w3.org/2000/svg"
 xmlns:xlink="http://www.w3.org/1999/xlink"
 width="600" height="150">
<path fill-rule="evenodd"  fill="rgb(35, 106, 21)"
 d="M523.428,16.578 C517.147,16.578 513.379,19.65 513.379,22.682 C513.379,27.204 517.490,27.882 523.998,29.352 L530.621,30.821 C544.324,33.874 555.58,39.978 555.58,56.143 C555.58,71.630 543.639,81.578 524.684,81.578 C512.237,81.578 505.500,79.543 497.50,76.830 L492.254,52.752 L493.396,52.186 C500.704,58.743 512.580,64.169 523.770,64.169 C529.936,64.169 533.590,61.908 533.590,58.65 C533.590,53.91 527.881,51.395 521.258,50.39 L514.292,48.569 C498.306,45.178 492.825,37.39 492.825,24.717 C492.825,10.248 504.929,0.187 522.742,0.187 C534.732,0.187 542.497,2.448 546.836,3.804 L550.34,26.413 L548.892,26.865 C539.528,18.613 530.393,16.578 523.428,16.578 ZM466.676,39.526 C472.728,34.326 476.497,28.674 478.209,22.456 C477.638,22.569 477.182,22.569 476.725,22.569 C470.787,22.569 465.991,17.595 465.991,11.378 C465.991,5.161 470.559,0.187 477.182,0.187 C483.805,0.187 488.601,4.935 488.601,13.978 C488.601,25.734 479.808,38.395 468.846,43.30 L466.676,39.526 ZM434.248,51.169 L434.248,65.412 C434.248,73.438 435.961,76.265 440.186,79.317 L439.958,80.447 L407.985,80.447 L407.757,79.317 C411.981,76.265 413.694,73.438 413.694,65.412 L413.694,51.169 L393.597,15.221 C389.943,8.665 386.974,5.500 383.434,2.448 L383.663,1.317 L413.466,1.317 L413.694,2.448 C411.867,4.822 411.981,8.213 414.265,12.621 L424.314,32.291 L434.363,12.621 C436.646,8.213 436.760,4.822 434.933,2.448 L435.162,1.317 L464.280,1.317 L464.508,2.448 C460.969,5.500 458.0,8.665 454.346,15.221 L434.248,51.169 ZM382.945,24.604 C376.893,19.743 371.298,17.821 363.761,17.821 L347.889,17.821 L347.889,31.726 L360.221,31.726 C365.931,31.726 368.785,30.595 371.983,27.204 L373.125,27.317 L373.125,52.186 L371.983,52.299 C368.785,48.908 365.931,47.778 360.221,47.778 L347.889,47.778 L347.889,63.943 L366.45,63.943 C373.581,63.943 379.177,62.21 385.229,57.160 L386.370,57.726 L381.689,80.447 L321.511,80.447 L321.397,79.317 C325.622,76.265 327.335,73.438 327.335,65.412 L327.335,16.352 C327.335,8.326 325.622,5.500 321.397,2.448 L321.511,1.317 L379.405,1.317 L384.87,24.39 L382.945,24.604 ZM285.669,80.447 L271.624,80.447 L247.302,17.708 C243.533,8.100 241.21,5.500 237.253,2.448 L237.367,1.317 L268.655,1.317 L268.769,2.448 C266.29,4.935 265.115,8.213 267.741,15.674 L278.932,47.100 L290.351,15.674 C293.91,8.213 291.949,4.935 289.209,2.448 L289.323,1.317 L319.926,1.317 L320.40,2.448 C316.272,5.500 313.759,8.100 309.991,17.708 L285.669,80.447 ZM222.638,50.152 L233.30,65.865 C236.798,71.630 240.338,75.925 245.19,79.317 L244.905,80.447 L218.528,80.447 C216.358,76.151 214.74,71.969 209.849,65.73 L202.84,52.413 L195.233,52.413 L195.233,65.412 C195.233,73.438 196.832,76.265 200.600,79.317 L200.486,80.447 L168.855,80.447 L168.741,79.317 C172.966,76.265 174.679,73.438 174.679,65.412 L174.679,16.352 C174.679,8.326 172.966,5.500 168.741,2.448 L168.855,1.317 L210.78,1.317 C227.92,1.317 238.739,11.717 238.739,26.639 C238.739,37.491 232.573,46.195 222.638,50.152 ZM208.251,17.821 L195.233,17.821 L195.233,35.908 L208.251,35.908 C214.74,35.908 217.957,32.65 217.957,26.865 C217.957,21.665 214.74,17.821 208.251,17.821 ZM135.971,80.447 L135.857,79.430 C139.168,76.717 140.82,74.230 138.483,67.108 L137.341,61.795 L109.936,61.795 L108.794,67.108 C107.195,74.230 108.109,76.717 111.420,79.430 L111.306,80.447 L81.617,80.447 L81.503,79.317 C84.929,76.265 86.870,73.552 88.697,65.639 L99.545,19.517 C101.828,9.569 99.545,5.500 94.977,2.448 L95.206,1.317 L152.757,1.317 L152.985,2.448 C148.418,5.500 146.134,9.795 148.418,19.517 L159.265,65.639 C161.93,73.552 163.34,76.265 166.459,79.317 L166.345,80.447 L135.971,80.447 ZM127.749,18.274 L119.528,18.274 L113.704,44.839 L133.573,44.839 L127.749,18.274 ZM79.221,79.317 L79.107,80.447 L46.905,80.447 L46.791,79.317 C51.16,76.265 52.729,73.438 52.729,65.412 L52.729,49.134 L27.265,49.134 L27.265,65.412 C27.265,73.438 28.978,76.265 33.203,79.317 L33.89,80.447 L0.887,80.447 L0.773,79.317 C4.998,76.265 6.711,73.438 6.711,65.412 L6.711,16.352 C6.711,8.326 4.998,5.500 0.773,2.448 L0.887,1.317 L33.89,1.317 L33.203,2.448 C28.978,5.500 27.265,8.326 27.265,16.352 L27.265,30.369 L52.729,30.369 L52.729,16.352 C52.729,8.326 51.16,5.500 46.791,2.448 L46.905,1.317 L79.107,1.317 L79.221,2.448 C74.996,5.500 73.283,8.326 73.283,16.352 L73.283,65.412 C73.283,73.438 74.996,76.265 79.221,79.317 Z"/>
</svg>