<?xml version="1.0" encoding="UTF-8"?>
<svg xmlns="http://www.w3.org/2000/svg" version="1.1" viewBox="0 0 555.6 81.6">
  <defs>
    <style>
      .cls-1 {
        fill: #236a15;
        fill-rule: evenodd;
      }
    </style>
  </defs>
  <!-- Generator: Adobe Illustrator 28.7.1, SVG Export Plug-In . SVG Version: 1.2.0 Build 142)  -->
  <g>
    <g id="Layer_1">
      <path class="cls-1" d="M523.4,16.6c-6.3,0-10,3.1-10,6.1,0,4.5,4.1,5.2,10.6,6.7l6.6,1.5c13.7,3.1,25,9.2,25,25.3s-11.9,25.4-30.9,25.4-19.2-2-27.2-4.7l-5.2-24.1,1.1-.6c7.3,6.6,19.2,12,30.4,12s9.8-2.3,9.8-5.5c0-4.7-5.7-7.3-12.3-8.3l-7-1.8c-16-3.4-21.5-11.2-21.5-23.9S504.9.2,522.7.2s19.8,2.3,24.1,3.6l3.5,22.6-1.4.5c-9.4-8.3-18.5-10.3-25.5-10.3ZM466.7,39.5c6.1-5.2,9.8-10.9,11.5-17.1-.6.1-1,.1-1.5.1-5.9,0-10.7-5-10.7-11.2S470.6.2,477.2.2s11.4,4.7,11.4,13.8-8.8,24.4-19.8,29.3l-2.2-3.8ZM434.2,51.2v14.2c0,8,1.7,10.9,5.9,13.9l-.2,1.1h-32l-.2-1.1c4.2-3.1,5.9-5.9,5.9-13.9v-14.2l-20.1-35.9c-3.7-6.6-6.6-9.7-10.2-12.8l.2-1.1h29.8l.2,1.1c-1.8,2.4-1.7,5.8.6,10.2l10,19.7,10-19.7c2.3-4.4,2.4-7.8.6-10.2l.2-1.1h29.1l.2,1.1c-3.5,3.1-6.5,6.2-10.2,12.8l-20.1,35.9ZM382.9,24.6c-6.1-4.9-11.6-6.8-19.2-6.8h-15.9v13.9h12.3c5.7,0,8.6-1.1,11.8-4.5h1.1v25h-1.1c-3.2-3.3-6.1-4.4-11.8-4.4h-12.3v16.2h18.6c7.1,0,12.7-1.7,18.8-6.8l1.1.6-4.7,22.7h-60.2v-1.1c4.1-3.1,5.8-5.9,5.8-13.9V16.4c0-8-1.7-10.9-5.9-13.9v-1.1h58l5.5,23.1-1.9.2ZM285.7,80.4h-14l-24.3-62.7c-3.8-9.6-6.1-12.2-10-15.3v-1.1h31.4v1.1c-2.4,2.5-3.5,5.8-.9,13.2l11.2,31.4,11.4-31.4c3.6-7.5,1.6-10.7-1.1-13.2v-1.1h30.7l.5,1.1c-4.1,3.1-6.6,5.7-10.4,15.3l-24.3,62.7ZM222.6,50.2l10.7,15.7c3.5,5.8,7,10.1,11.9,13.5l-.3,1.1h-26.4c-2.2-4.3-3.8-8.5-8.7-14.7l-7-13.3h-7.6v13c0,8,1.6,10.9,5.4,13.9v1.1h-31.7v-1.1c4.1-3.1,5.8-5.9,5.8-13.9V16.4c0-8-1.7-10.9-5.9-13.9v-1.1h42c17.1,0,28,10.4,28,25.3s-6.2,19.6-16.1,23.5ZM208.3,17.8h-13v18.1h13c6.5,0,9.7-3.3,9.7-9s-3.2-9-9.7-9ZM136,80.4v-1c3.2-2.7,4.8-5.2,2.5-12.3l-1.1-5.3h-27.4l-1.1,5.3c-1.6,7.1-.7,9.6,2.6,12.3v1h-29.8v-1.1c3.3-3.1,5.3-5.8,7.1-13.7l10.8-46.1c2.3-9.9,0-14-4.6-17.1l.2-1.1h57.6l.2,1.1c-4.6,3.1-6.9,7.3-4.6,17.1l10.8,46.1c2.7,7.9,4.1,10.6,7.2,13.7v1.1h-30.5ZM127.7,18.3h-8.2l-5.8,26.6h19.9l-5.8-26.6ZM79.2,79.3v1.1h-32.3v-1.1c4.3-3.1,5.8-5.9,5.8-13.9v-16.3h-25.5v16.3c0,8,1.7,10.9,5.9,13.9l.7,1.1H.9v-1.1c4.1-3.1,5.8-5.9,5.8-13.9V16.4C6.7,8.3,5,5.5.8,2.4v-1.1h33.1l-.7,1.1c-4.2,3.1-5.9,5.9-5.9,13.9v14h25.5v-14c0-8-1.6-10.9-5.9-13.9v-1.1h32.3v1.1c-4.1,3.1-5.8,5.9-5.8,13.9v49.1c0,8,1.7,10.9,5.9,13.9Z"/>
    </g>
  </g>
</svg>