<?xml version="1.0" encoding="UTF-8"?>
<svg xmlns="http://www.w3.org/2000/svg" version="1.1" viewBox="0 0 297 106">
  <defs>
    <style>
      .cls-1 {
        fill: #219d4f;
      }
    </style>
  </defs>
  <!-- Generator: Adobe Illustrator 28.7.1, SVG Export Plug-In . SVG Version: 1.2.0 Build 142)  -->
  <g>
    <g id="Layer_1">
      <g id="Layer_1-2" data-name="Layer_1">
        <path class="cls-1" d="M150.6,37.1c-.3-1.8-.3-3.6,0-5.6,0-.4,0-.3,0-.3v-.9c0-1.5-.8-2.2-2.3-2.2h-9.1c-1.3,0-1.6-.2-1.6-1.1,0,0,0-1,0-1.2,0-.3-.3-.6-1.1-.6h-4.9c-1.7,0-1.4.2-1.5,1.3-.5,3.9-1.1,7.8-1.7,13.4-1.1,9.1-2.6,17.4-3.8,21-.8,1.5-.9,2.1-3.5,3-3,.8-6.1,0-6.9-3-.6-2.2-.8-4.6-.8-6.9,0-7.1,2.5-15.8,3.6-20.9,0,0,0-.6,1.4-6.8.2-.9,0-1.2-1-1.2h-5.2c-1,0-1.3.5-1.5,1.3-.4,2.1-.4,2.3-1,5,0,0-.6,0-.6,0-.4-.4-.8-.8-1.1-1.2-1.8-2.3-4.1-3.6-7.2-3.6s-7.2,1.2-10.1,3.6c-8.9,7.4-12.6,18.9-11.6,28.4.2,1.2-1.8,2.9-2.2,3.2-1.2.9-2.4,1.8-3.8,2.3-2.9,1.1-5.5,0-6.3-3-.6-2.3-.8-4.7-.8-7,.2-8.2,3.7-23.1,3.9-24l.9-4.8s1.3-7.2,1.4-7.5c.6-2.5,1.6-8.3,2.2-11h-7.6c-.3,0-.7.5-.7.8-.5,2.1-1.4,7.5-1.8,9.7,0,.7-2.2,10.9-2.2,10.9h0-12.3c-1.6,0-1.8-.2-1.5-1.7,1.3-6.8,2.7-13.5,4.1-20.3.2-1.2,0-1.6-1.2-1.8-4.3-.9-8.6-2-12.9-2.7-6.1-1.2-7.7-1-14.3-1.3-5.9.5-9.8.7-14.4,2.7C5.4,5,1.7,7.8.2,12.5c-2.5,7.4,2.7,16.3,10.4,18,.9.2,1.1-.2,1.2-.8.3-1.5.5-3.1.9-4.6.3-1.1,0-1.7-1-2.2-2-1-3.6-2.5-4.2-4.7-.8-3,.5-5.7,3.8-7.5,2.9-1.7,6.3-2.3,9.5-2.7,8.4-1,14.2-.4,21.4,1.7,1.2.3,1.4.9,1.2,1.9-1,5-2.1,10.1-3,15.2-.2,1.3-.8,1.7-2.1,1.7h-13.6c-1.1,0-1.6.4-1.8,1.5-.2,1.6-.6,3.2-.9,4.7-.3,1.6-.2,1.7,1.3,1.7h13.4c1.6,0,1.7,0,1.4,1.6-1.1,4.8-2.1,9.7-3.5,14.5-.9,3.1-2.3,6.3-4,9-2.5,3.9-6.7,4.2-10,.9s-2.9-3.6-4.3-5.5c-.7-.9-1.1-2.5-1.8-2.6-.9-.2-2.1.8-3.1,1.3-2.6,1.3-2.3,1-1.4,3.4,1.5,4.1,3.6,7.9,7.2,10.5,5.5,4,15.4,4,20.5-4.5,2.6-4.3,4.3-8.9,5.6-13.6,1.2-4.5,2.1-9.1,3.1-13.6.2-.9.6-1.4,1.6-1.4h11.4c1.1,0,1.4.4,1.2,1.5-.8,3.9-1.6,7.8-2.1,11.8-.6,4.8-.7,9.7.8,14.4,1.9,6.4,7.4,9.4,13.9,7.5,2.6-.8,4.8-2.1,6.7-3.8,1.1-1,2.3.4,2,0s4.6,4.6,13.4,3.9c4.5-1.2,7.7-4.2,10.4-7.7l.9-.9c.2.4.6.8.7,1.2,1.6,5.4,5.4,8.1,11.1,7.8,6.3,0,9.9-2.6,11.6-4.8,1.8-2.3,2.5-5.8,3.8-15.1.6-6.2,1.2-10.2,2.6-14.4.3-.9.4-1.3,1.7-1.3h4.8c.9,0,.9.3,1,1.3,0,.9,0,3.4.2,4.3,0,.4,0,.9.4.9.6,0,6.5-1.6,6.5-1.9-.2-3.4-.2-1.9,0-3.5l-.3-.4ZM105.2,51.1c-.8,3.1-2.1,6.1-4.1,8.7-1.4,1.8-3,3.2-5.1,4-4.2,1.5-7.6-.4-8.5-4.7-.2-1.2-.3-2.4-.4-3.3.4-6.5,2.1-12.2,6.3-16.9,1.2-1.4,2.7-2.5,4.3-3.4,3.7-2.1,7.3-.4,8.3,3.8,1,4.1.2,8-.8,11.9h0ZM285.5,46.4c-3.4-1.7-6.6-2.6-7-7.5,1.5-4.6,7.1-3.4,9.7-2.7,3.6,1,5.2,2.1,6.4,3.7,0,0,.2,0,.3-.2.7-1.6,1.8-4.9,1.9-5.2-2.6-3-4.7-4.7-11.3-5.4-11.5,0-13.6,10.1-13.5,10.8,0,6.7,5.9,9.3,9.7,11.3,2.2,1.2,9.4,2.6,7.6,10.2-.7,1.8-5.7,9.3-15.7-1.7l-4.4,3.2s4.7,9.2,13.3,9.4c5.9,0,8.9-1.3,11.7-5,4.1-5.4,3.7-17.1-8.6-21h0ZM272.2,29.7c2-1.2,4.6-3.6,5.3-8.7l.4-3.1-6.2.2-.4,2c-.3,2.1-.5,3.5-1.7,4.2l-1.9,2.1,1.8,4.9,2.7-1.6h0ZM260.6,28.6h-5.4c-.9,0-1.5.2-1.6,1.1-.2,1.1-1.9,9.1-2.2,10.2-1.5,7.5-2,10.6-3.2,17.2-.3,1.7-.7,3.8-2.7,6.5-.7,2.1-6.8,3.3-8.6,0-.5-.9-1.3-4.3-1.1-7.5,0-7,.8-10.4,2.2-17.2.5-2.3,2.2-7.6,2.7-10.2h-8.1c-.9,0-.3.2-.5,1.1-.7,3.2-1,6.4-1.6,9.7-1.3,6.6-1,3.9-2.2,11.8-.2.3-4.9,6.5-14.1,11.8-5.5,2.4-6.8,3.1-11.4,2.2-5.1-1.4-8-6.9-6-12,0,0,0,0,.2-.2,1.6.6,3.1,1.2,4.7,1.6,7.9,2.3,20.7-3.2,19.2-16.2-.7-6-4.8-9.8-10.5-9.8s-8.3,1.8-11.4,4.9c-3.8,3.9-4,5.6-5.5,8.7-.6,1.8-7.7-5.7-10.2-10.1-.3-.5.2-5,.2-5,.2-.9,0-1.2-1-1.2h-5.8c-.9,0-1.9-.2-2,.7-.2,1.1,0,4.9,0,5,1.3,7.9-.3,11.6-1.1,16.3-1,5.7-1.7,7.5-4.5,12.4-9.8,11.8-9,5.1-9-1.7s.8-7.8,1.1-9.6c1.3-5.9,1.2-6.1,3.1-13.3.5-2.3,1.1-4.4,1.6-7h-6.6c-.9,0-1.9.3-2.1,1.2-.3,2-2.1,12.1-2.7,16.2-.2,1.3-.5,1.4-1.1,7.3-.2,3.4-.3,5.6,0,7.9.4,4,2.7,11.4,7.7,11.4,6.8-.4,10.1-3.8,13-7.5,1.1-1.4,2.9-5.4,4.1-9.8,2-10.5,3.5-15,3.5-14.9.4,2.4,8.6,5.3,7.9,9-.8,4-.9,5.2-.6,10.1.9,5.2,2.7,8.4,4.5,10,1.1,1,2.3,1.5,3.7,2.1,5.5,2.5,13.2.3,16.6-1.4,2.8-1.5,3.4-1.9,7.4-4.5,1.6-1.3,7.4-6.3,7-3.2.5,2.9,1.9,7.2,5.4,9.1,2.6,1.4,6.2,1.4,8.1,1.1,3.3,0,3.5,1,3.2,2.6-.9,5.2-.8,6.3-2.2,11.1-.9,3.1-2.1,6.3-4,9-3.3,4.6-6.6,4.9-10.5.9-1.6-1.6-2.9-3.6-4.3-5.5-.7-.9-1.1-2.5-1.8-2.6-.9-.2-2.1.8-3.1,1.3-2.6,1.3-2.3,1-1.4,3.4,1.5,4.1,3.6,7.9,7.2,10.5,5.5,4,16,4,21.1-4.5,2.6-4.3,3.8-8.9,5-13.6,1.2-4.5,1.5-8,2.5-12.5.2-.9,2-9.8,2-9.8,0,0,1.3-6.8,2.7-14,1-5.6,2.5-13.4,3.8-19.4.2-.9-.2-1.1-1.1-1.1h-.3ZM199,45.4c1.5-3,3.3-5.9,5.9-8.1,1.8-1.5,3.8-2.3,6.2-1.9,3,.5,4.6,3,3.8,6-1,4.1-4.8,6.7-9.7,6.8-1.8-.4-3.7-.8-5.5-1.2s-1.2-.8-.8-1.6h0Z"/>
      </g>
    </g>
  </g>
</svg>